<svg xmlns="http://www.w3.org/2000/svg" width="110" height="93" viewBox="0 0 110 93">
  <g fill="none" fill-rule="evenodd" stroke="#6CCA7E" stroke-width="5" transform="translate(1 3)">
    <rect width="83.855" height="52.347" x="12.551" y="34.677" rx="5"/>
    <rect width="17.609" height="17.556" x="64.079" y="46.908" rx="5"/>
    <rect width="24.309" height="32.303" x="27.368" y="54.605" rx="5"/>
    <rect width="10.253" height="17.556" x="76.513" y="4.276" rx="5"/>
    <path fill="#DAFDC5" d="M55.0144084,0.347578073 L106.08303,33.1745407 L106.08303,33.1745407 C106.547612,33.4731744 106.682139,34.0918829 106.383505,34.5564648 C106.199509,34.8427066 105.882583,35.0157406 105.542305,35.0157406 L3.40506299,35.0157406 L3.40506299,35.0157406 C2.85277824,35.0157406 2.40506299,34.5680254 2.40506299,34.0157406 C2.40506299,33.6754628 2.57809708,33.3585372 2.86433879,33.1745407 L53.93296,0.347578073 L53.93296,0.347578073 C54.2623518,0.135844664 54.6850166,0.135844664 55.0144084,0.347578073 Z"/>
  </g>
</svg>
